<svg width="300" height="86" viewBox="0 0 300 86" fill="none" xmlns="http://www.w3.org/2000/svg">
<g opacity="0.03">
<g clip-path="url(#clip0_12_265)">
<rect x="282.049" y="-59.6522" width="71.1957" height="4.8891" rx="2.44455" transform="rotate(90 282.049 -59.6522)" fill="#26262E"/>
<rect x="270.098" y="-59.6522" width="87.5" height="4.8891" rx="2.44455" transform="rotate(90 270.098 -59.6522)" fill="#26262E"/>
<rect x="258.689" y="-59.6522" width="101.087" height="4.8891" rx="2.44455" transform="rotate(90 258.689 -59.6522)" fill="#26262E"/>
<rect x="246.739" y="-59.6522" width="110.326" height="4.8891" rx="2.44455" transform="rotate(90 246.739 -59.6522)" fill="#26262E"/>
<rect x="234.788" y="-59.6522" width="117.935" height="4.8891" rx="2.44455" transform="rotate(90 234.788 -59.6522)" fill="#26262E"/>
<rect x="222.837" y="-59.6522" width="126.63" height="4.8891" rx="2.44455" transform="rotate(90 222.837 -59.6522)" fill="#26262E"/>
<rect x="210.885" y="-59.6522" width="132.065" height="4.8891" rx="2.44455" transform="rotate(90 210.885 -59.6522)" fill="#26262E"/>
<rect x="199.477" y="-59.6522" width="136.957" height="4.8891" rx="2.44455" transform="rotate(90 199.477 -59.6522)" fill="#26262E"/>
<rect x="187.526" y="-59.6522" width="139.674" height="4.8891" rx="2.44455" transform="rotate(90 187.526 -59.6522)" fill="#26262E"/>
<rect x="175.575" y="-59.6522" width="142.935" height="4.8891" rx="2.44455" transform="rotate(90 175.575 -59.6522)" fill="#26262E"/>
<rect x="164.167" y="-59.6522" width="144.565" height="4.8891" rx="2.44455" transform="rotate(90 164.167 -59.6522)" fill="#26262E"/>
<rect x="152.217" y="-59.6522" width="145.652" height="4.8891" rx="2.44455" transform="rotate(90 152.217 -59.6522)" fill="#26262E"/>
<rect x="140.265" y="-59.6522" width="144.565" height="4.8891" rx="2.44455" transform="rotate(90 140.265 -59.6522)" fill="#26262E"/>
<rect x="128.314" y="-59.6522" width="142.935" height="4.8891" rx="2.44455" transform="rotate(90 128.314 -59.6522)" fill="#26262E"/>
<rect x="116.363" y="-59.6522" width="139.674" height="4.8891" rx="2.44455" transform="rotate(90 116.363 -59.6522)" fill="#26262E"/>
<rect x="104.412" y="-59.6522" width="136.957" height="4.8891" rx="2.44455" transform="rotate(90 104.412 -59.6522)" fill="#26262E"/>
<rect x="93.0039" y="-59.6522" width="132.065" height="4.8891" rx="2.44455" transform="rotate(90 93.0039 -59.6522)" fill="#26262E"/>
<rect x="81.0525" y="-59.6522" width="126.63" height="4.8891" rx="2.44455" transform="rotate(90 81.0525 -59.6522)" fill="#26262E"/>
<rect x="69.1016" y="-59.6522" width="117.935" height="4.8891" rx="2.44455" transform="rotate(90 69.1016 -59.6522)" fill="#26262E"/>
<rect x="57.1499" y="-59.6522" width="110.326" height="4.8891" rx="2.44455" transform="rotate(90 57.1499 -59.6522)" fill="#26262E"/>
<rect x="45.7419" y="-59.6522" width="101.087" height="4.8891" rx="2.44455" transform="rotate(90 45.7419 -59.6522)" fill="#26262E"/>
<rect x="33.791" y="-59.6522" width="87.5" height="4.8891" rx="2.44455" transform="rotate(90 33.791 -59.6522)" fill="#26262E"/>
<rect x="21.8403" y="-59.6522" width="71.1957" height="4.8891" rx="2.44455" transform="rotate(90 21.8403 -59.6522)" fill="#26262E"/>
</g>
</g>
<defs>
<clipPath id="clip0_12_265">
<rect width="145.652" height="289" fill="white" transform="translate(294 -59.6522) rotate(90)"/>
</clipPath>
</defs>
</svg>
