<svg width="283" height="279" viewBox="0 0 283 279" fill="none" xmlns="http://www.w3.org/2000/svg">
<g opacity="0.1">
<circle cx="6.7381" cy="6.7381" r="6.7381" fill="#26262E"/>
<circle cx="33.6905" cy="6.7381" r="6.7381" fill="#26262E"/>
<circle cx="60.6426" cy="6.7381" r="6.7381" fill="#26262E"/>
<circle cx="87.5953" cy="6.7381" r="6.7381" fill="#26262E"/>
<circle cx="114.548" cy="6.7381" r="6.7381" fill="#26262E"/>
<circle cx="141.5" cy="6.7381" r="6.7381" fill="#26262E"/>
<circle cx="168.452" cy="6.7381" r="6.7381" fill="#26262E"/>
<circle cx="195.405" cy="6.7381" r="6.7381" fill="#26262E"/>
<circle cx="222.357" cy="6.7381" r="6.7381" fill="#26262E"/>
<circle cx="249.31" cy="6.7381" r="6.7381" fill="#26262E"/>
<circle cx="276.262" cy="6.7381" r="6.7381" fill="#26262E"/>
<circle cx="6.7381" cy="33.2143" r="6.7381" fill="#26262E"/>
<circle cx="33.6905" cy="33.2143" r="6.7381" fill="#26262E"/>
<circle cx="60.6426" cy="33.2142" r="6.7381" fill="#26262E"/>
<circle cx="87.5953" cy="33.2142" r="6.7381" fill="#26262E"/>
<circle cx="114.548" cy="33.2142" r="6.7381" fill="#26262E"/>
<circle cx="141.5" cy="33.2142" r="6.7381" fill="#26262E"/>
<circle cx="168.452" cy="33.2142" r="6.7381" fill="#26262E"/>
<circle cx="195.405" cy="33.2142" r="6.7381" fill="#26262E"/>
<circle cx="222.357" cy="33.2142" r="6.7381" fill="#26262E"/>
<circle cx="249.31" cy="33.2142" r="6.7381" fill="#26262E"/>
<circle cx="276.262" cy="33.2142" r="6.7381" fill="#26262E"/>
<circle cx="6.7381" cy="59.6905" r="6.7381" fill="#26262E"/>
<circle cx="33.6905" cy="59.6905" r="6.7381" fill="#26262E"/>
<circle cx="60.6426" cy="59.6903" r="6.7381" fill="#26262E"/>
<circle cx="87.5953" cy="59.6903" r="6.7381" fill="#26262E"/>
<circle cx="114.548" cy="59.6903" r="6.7381" fill="#26262E"/>
<circle cx="141.5" cy="59.6903" r="6.7381" fill="#26262E"/>
<circle cx="168.452" cy="59.6903" r="6.7381" fill="#26262E"/>
<circle cx="195.405" cy="59.6903" r="6.7381" fill="#26262E"/>
<circle cx="222.357" cy="59.6903" r="6.7381" fill="#26262E"/>
<circle cx="249.31" cy="59.6903" r="6.7381" fill="#26262E"/>
<circle cx="276.262" cy="59.6903" r="6.7381" fill="#26262E"/>
<circle cx="6.7381" cy="86.1667" r="6.7381" fill="#26262E"/>
<circle cx="33.6905" cy="86.1667" r="6.7381" fill="#26262E"/>
<circle cx="60.6426" cy="86.1669" r="6.7381" fill="#26262E"/>
<circle cx="87.5953" cy="86.1669" r="6.7381" fill="#26262E"/>
<circle cx="114.548" cy="86.1669" r="6.7381" fill="#26262E"/>
<circle cx="141.5" cy="86.1669" r="6.7381" fill="#26262E"/>
<circle cx="168.452" cy="86.1669" r="6.7381" fill="#26262E"/>
<circle cx="195.405" cy="86.1669" r="6.7381" fill="#26262E"/>
<circle cx="222.357" cy="86.1669" r="6.7381" fill="#26262E"/>
<circle cx="249.31" cy="86.1669" r="6.7381" fill="#26262E"/>
<circle cx="276.262" cy="86.1669" r="6.7381" fill="#26262E"/>
<circle cx="6.7381" cy="112.643" r="6.7381" fill="#26262E"/>
<circle cx="33.6905" cy="112.643" r="6.7381" fill="#26262E"/>
<circle cx="60.6426" cy="112.643" r="6.7381" fill="#26262E"/>
<circle cx="87.5953" cy="112.643" r="6.7381" fill="#26262E"/>
<circle cx="114.548" cy="112.643" r="6.7381" fill="#26262E"/>
<circle cx="141.5" cy="112.643" r="6.7381" fill="#26262E"/>
<circle cx="168.452" cy="112.643" r="6.7381" fill="#26262E"/>
<circle cx="195.405" cy="112.643" r="6.7381" fill="#26262E"/>
<circle cx="222.357" cy="112.643" r="6.7381" fill="#26262E"/>
<circle cx="249.31" cy="112.643" r="6.7381" fill="#26262E"/>
<circle cx="276.262" cy="112.643" r="6.7381" fill="#26262E"/>
<circle cx="6.7381" cy="139.119" r="6.7381" fill="#26262E"/>
<circle cx="33.6905" cy="139.119" r="6.7381" fill="#26262E"/>
<circle cx="60.6426" cy="139.119" r="6.7381" fill="#26262E"/>
<circle cx="87.5953" cy="139.119" r="6.7381" fill="#26262E"/>
<circle cx="114.548" cy="139.119" r="6.7381" fill="#26262E"/>
<circle cx="141.5" cy="139.119" r="6.7381" fill="#26262E"/>
<circle cx="168.452" cy="139.119" r="6.7381" fill="#26262E"/>
<circle cx="195.405" cy="139.119" r="6.7381" fill="#26262E"/>
<circle cx="222.357" cy="139.119" r="6.7381" fill="#26262E"/>
<circle cx="249.31" cy="139.119" r="6.7381" fill="#26262E"/>
<circle cx="276.262" cy="139.119" r="6.7381" fill="#26262E"/>
<circle cx="6.7381" cy="165.595" r="6.7381" fill="#26262E"/>
<circle cx="33.6905" cy="165.595" r="6.7381" fill="#26262E"/>
<circle cx="60.6426" cy="165.595" r="6.7381" fill="#26262E"/>
<circle cx="87.5953" cy="165.595" r="6.7381" fill="#26262E"/>
<circle cx="114.548" cy="165.595" r="6.7381" fill="#26262E"/>
<circle cx="141.5" cy="165.595" r="6.7381" fill="#26262E"/>
<circle cx="168.452" cy="165.595" r="6.7381" fill="#26262E"/>
<circle cx="195.405" cy="165.595" r="6.7381" fill="#26262E"/>
<circle cx="222.357" cy="165.595" r="6.7381" fill="#26262E"/>
<circle cx="249.31" cy="165.595" r="6.7381" fill="#26262E"/>
<circle cx="276.262" cy="165.595" r="6.7381" fill="#26262E"/>
<circle cx="6.7381" cy="192.071" r="6.7381" fill="#26262E"/>
<circle cx="33.6905" cy="192.071" r="6.7381" fill="#26262E"/>
<circle cx="60.6426" cy="192.071" r="6.7381" fill="#26262E"/>
<circle cx="87.5953" cy="192.071" r="6.7381" fill="#26262E"/>
<circle cx="114.548" cy="192.071" r="6.7381" fill="#26262E"/>
<circle cx="141.5" cy="192.071" r="6.7381" fill="#26262E"/>
<circle cx="168.452" cy="192.071" r="6.7381" fill="#26262E"/>
<circle cx="195.405" cy="192.071" r="6.7381" fill="#26262E"/>
<circle cx="222.357" cy="192.071" r="6.7381" fill="#26262E"/>
<circle cx="249.31" cy="192.071" r="6.7381" fill="#26262E"/>
<circle cx="276.262" cy="192.071" r="6.7381" fill="#26262E"/>
<circle cx="6.7381" cy="218.548" r="6.7381" fill="#26262E"/>
<circle cx="33.6905" cy="218.548" r="6.7381" fill="#26262E"/>
<circle cx="60.6426" cy="218.548" r="6.7381" fill="#26262E"/>
<circle cx="87.5953" cy="218.548" r="6.7381" fill="#26262E"/>
<circle cx="114.548" cy="218.548" r="6.7381" fill="#26262E"/>
<circle cx="141.5" cy="218.548" r="6.7381" fill="#26262E"/>
<circle cx="168.452" cy="218.548" r="6.7381" fill="#26262E"/>
<circle cx="195.405" cy="218.548" r="6.7381" fill="#26262E"/>
<circle cx="222.357" cy="218.548" r="6.7381" fill="#26262E"/>
<circle cx="249.31" cy="218.548" r="6.7381" fill="#26262E"/>
<circle cx="276.262" cy="218.548" r="6.7381" fill="#26262E"/>
<circle cx="6.7381" cy="245.024" r="6.7381" fill="#26262E"/>
<circle cx="33.6907" cy="245.024" r="6.7381" fill="#26262E"/>
<circle cx="60.6426" cy="245.024" r="6.7381" fill="#26262E"/>
<circle cx="87.5953" cy="245.024" r="6.7381" fill="#26262E"/>
<circle cx="114.548" cy="245.024" r="6.7381" fill="#26262E"/>
<circle cx="141.5" cy="245.024" r="6.7381" fill="#26262E"/>
<circle cx="168.452" cy="245.024" r="6.7381" fill="#26262E"/>
<circle cx="195.405" cy="245.024" r="6.7381" fill="#26262E"/>
<circle cx="222.357" cy="245.024" r="6.7381" fill="#26262E"/>
<circle cx="249.31" cy="245.024" r="6.7381" fill="#26262E"/>
<circle cx="276.262" cy="245.024" r="6.7381" fill="#26262E"/>
<circle cx="6.7381" cy="271.5" r="6.7381" fill="#26262E"/>
<circle cx="33.6905" cy="271.5" r="6.7381" fill="#26262E"/>
<circle cx="60.6426" cy="271.5" r="6.7381" fill="#26262E"/>
<circle cx="87.5953" cy="271.5" r="6.7381" fill="#26262E"/>
<circle cx="114.548" cy="271.5" r="6.7381" fill="#26262E"/>
<circle cx="141.5" cy="271.5" r="6.7381" fill="#26262E"/>
<circle cx="168.452" cy="271.5" r="6.7381" fill="#26262E"/>
<circle cx="195.405" cy="271.5" r="6.7381" fill="#26262E"/>
<circle cx="222.357" cy="271.5" r="6.7381" fill="#26262E"/>
<circle cx="249.31" cy="271.5" r="6.7381" fill="#26262E"/>
<circle cx="276.262" cy="271.5" r="6.7381" fill="#26262E"/>
</g>
</svg>
