<svg width="20" height="20" viewBox="0 0 20 20" fill="none" xmlns="http://www.w3.org/2000/svg">
<path d="M14.375 0C15.2038 0 15.9987 0.32924 16.5847 0.915291C17.1708 1.50134 17.5 2.2962 17.5 3.125V8.25C17.1005 8.04559 16.6818 7.88104 16.25 7.75875V5H1.25V14.375C1.25 14.8723 1.44754 15.3492 1.79917 15.7008C2.15081 16.0525 2.62772 16.25 3.125 16.25H7.75875C7.8825 16.6863 8.04625 17.1037 8.25 17.5H3.125C2.2962 17.5 1.50134 17.1708 0.915291 16.5847C0.32924 15.9987 0 15.2038 0 14.375V3.125C0 2.2962 0.32924 1.50134 0.915291 0.915291C1.50134 0.32924 2.2962 0 3.125 0H14.375ZM14.375 1.25H3.125C2.62772 1.25 2.15081 1.44754 1.79917 1.79917C1.44754 2.15081 1.25 2.62772 1.25 3.125V3.75H16.25V3.125C16.25 2.62772 16.0525 2.15081 15.7008 1.79917C15.3492 1.44754 14.8723 1.25 14.375 1.25ZM20 14.375C20 15.8668 19.4074 17.2976 18.3525 18.3525C17.2976 19.4074 15.8668 20 14.375 20C12.8832 20 11.4524 19.4074 10.3975 18.3525C9.34263 17.2976 8.75 15.8668 8.75 14.375C8.75 12.8832 9.34263 11.4524 10.3975 10.3975C11.4524 9.34263 12.8832 8.75 14.375 8.75C15.8668 8.75 17.2976 9.34263 18.3525 10.3975C19.4074 11.4524 20 12.8832 20 14.375V14.375ZM15 11.875C15 11.7092 14.9342 11.5503 14.8169 11.4331C14.6997 11.3158 14.5408 11.25 14.375 11.25C14.2092 11.25 14.0503 11.3158 13.9331 11.4331C13.8158 11.5503 13.75 11.7092 13.75 11.875V13.75H11.875C11.7092 13.75 11.5503 13.8158 11.4331 13.9331C11.3158 14.0503 11.25 14.2092 11.25 14.375C11.25 14.5408 11.3158 14.6997 11.4331 14.8169C11.5503 14.9342 11.7092 15 11.875 15H13.75V16.875C13.75 17.0408 13.8158 17.1997 13.9331 17.3169C14.0503 17.4342 14.2092 17.5 14.375 17.5C14.5408 17.5 14.6997 17.4342 14.8169 17.3169C14.9342 17.1997 15 17.0408 15 16.875V15H16.875C17.0408 15 17.1997 14.9342 17.3169 14.8169C17.4342 14.6997 17.5 14.5408 17.5 14.375C17.5 14.2092 17.4342 14.0503 17.3169 13.9331C17.1997 13.8158 17.0408 13.75 16.875 13.75H15V11.875Z" fill="black"/>
</svg>
