<svg width="12" height="12" viewBox="0 0 12 12" fill="none" xmlns="http://www.w3.org/2000/svg">
<path d="M1.3132 10.685H2.23243L7.89554 5.0137L6.97634 4.09315L1.3132 9.7644V10.685ZM10.7025 4.06028L7.91197 1.29863L8.83124 0.378082C9.08294 0.126028 9.39217 0 9.75899 0C10.1254 0 10.4344 0.126028 10.6861 0.378082L11.6053 1.29863C11.857 1.55069 11.9884 1.85491 11.9993 2.21128C12.0103 2.56723 11.8899 2.87123 11.6382 3.12329L10.7025 4.06028ZM0.656597 12C0.470561 12 0.314729 11.9369 0.1891 11.8106C0.0630334 11.6849 0 11.5288 0 11.3425V9.48495C0 9.39727 0.0164149 9.31245 0.0492448 9.23047C0.0820747 9.14805 0.13132 9.07395 0.196979 9.00825L6.95993 2.23561L9.75044 5.03014L2.98752 11.8028C2.92186 11.8685 2.8481 11.9178 2.76625 11.9507C2.68395 11.9836 2.59903 12 2.51149 12H0.656597ZM7.43596 4.55342L6.97634 4.09315L7.89554 5.0137L7.43596 4.55342Z" fill="#848484"/>
</svg>
