<svg width="16" height="16" viewBox="0 0 16 16" fill="none" xmlns="http://www.w3.org/2000/svg">
<path d="M1.75093 14.2466H2.97657L10.5274 6.68493L9.3018 5.45753L1.75093 13.0192V14.2466ZM14.27 5.4137L10.5493 1.73151L11.775 0.50411C12.1106 0.168037 12.5229 0 13.012 0C13.5005 0 13.9126 0.168037 14.2482 0.50411L15.4738 1.73151C15.8094 2.06758 15.9845 2.47321 15.9991 2.94838C16.0137 3.42298 15.8532 3.82831 15.5176 4.16438L14.27 5.4137ZM0.875463 16C0.627415 16 0.419639 15.9158 0.252133 15.7475C0.0840446 15.5798 0 15.3717 0 15.1233V12.6466C0 12.5297 0.0218866 12.4166 0.0656598 12.3073C0.109433 12.1974 0.175093 12.0986 0.262639 12.011L9.27991 2.98082L13.0006 6.70685L3.98336 15.737C3.89581 15.8247 3.79747 15.8904 3.68833 15.9342C3.5786 15.9781 3.46537 16 3.34865 16H0.875463ZM9.91462 6.07123L9.3018 5.45753L10.5274 6.68493L9.91462 6.07123Z" fill="#848484"/>
</svg>
