<svg width="12" height="11" viewBox="0 0 12 11" fill="none" xmlns="http://www.w3.org/2000/svg">
<path fill-rule="evenodd" clip-rule="evenodd" d="M12 5.25036C12 5.44925 11.921 5.64 11.7804 5.78063C11.6397 5.92127 11.449 6.00028 11.2501 6.00028H2.56155L5.7817 9.21892C5.85142 9.28864 5.90673 9.37142 5.94446 9.46252C5.9822 9.55361 6.00162 9.65125 6.00162 9.74986C6.00162 9.84846 5.9822 9.9461 5.94446 10.0372C5.90673 10.1283 5.85142 10.2111 5.7817 10.2808C5.71197 10.3505 5.6292 10.4058 5.5381 10.4436C5.447 10.4813 5.34936 10.5007 5.25075 10.5007C5.15215 10.5007 5.05451 10.4813 4.96341 10.4436C4.87231 10.4058 4.78954 10.3505 4.71981 10.2808L0.220316 5.7813C0.150479 5.71164 0.0950707 5.62889 0.0572652 5.53778C0.0194598 5.44667 0 5.349 0 5.25036C0 5.15172 0.0194598 5.05405 0.0572652 4.96294C0.0950707 4.87184 0.150479 4.78908 0.220316 4.71942L4.71981 0.219923C4.86063 0.0791088 5.05161 0 5.25075 0C5.4499 0 5.64088 0.0791088 5.7817 0.219923C5.92251 0.360737 6.00162 0.551722 6.00162 0.750864C6.00162 0.950005 5.92251 1.14099 5.7817 1.2818L2.56155 4.50045H11.2501C11.449 4.50045 11.6397 4.57945 11.7804 4.72009C11.921 4.86073 12 5.05147 12 5.25036Z" fill="black"/>
</svg>
