<svg width="25" height="18" viewBox="0 0 25 18" fill="none" xmlns="http://www.w3.org/2000/svg">
<path d="M5.04822 14.4C5.10717 14.4 5.16612 14.3955 5.22506 14.3888L10.1825 13.725C10.2415 13.716 10.2975 13.6958 10.3387 13.662L22.8326 4.12425C22.86 4.10343 22.8816 4.07871 22.8964 4.05149C22.9112 4.02427 22.9188 3.99509 22.9188 3.96563C22.9188 3.93616 22.9112 3.90698 22.8964 3.87976C22.8816 3.85254 22.86 3.82782 22.8326 3.807L17.9341 0.06525C17.8781 0.0225 17.8044 0 17.7249 0C17.6453 0 17.5716 0.0225 17.5156 0.06525L5.0217 9.603C4.97749 9.63675 4.95096 9.67725 4.93917 9.72225L4.0697 13.5068C4.04102 13.6273 4.05127 13.7513 4.09954 13.8682C4.14782 13.985 4.23267 14.0911 4.34675 14.1772C4.54127 14.3212 4.78591 14.4 5.04822 14.4V14.4ZM7.03475 10.476L17.7249 2.3175L19.8853 3.96675L9.19517 12.1253L6.57496 12.4785L7.03475 10.476V10.476ZM23.3897 16.29H1.69706C1.17538 16.29 0.753906 16.6118 0.753906 17.01V17.82C0.753906 17.919 0.860012 18 0.989696 18H24.0971C24.2268 18 24.3329 17.919 24.3329 17.82V17.01C24.3329 16.6118 23.9114 16.29 23.3897 16.29Z" fill="black"/>
</svg>
