<svg width="20" height="20" viewBox="0 0 20 20" fill="none" xmlns="http://www.w3.org/2000/svg">
<path d="M12.2222 10.8889C11.6667 10.3444 10.8667 10 10 10C9.21497 10.0001 8.45524 10.2777 7.85502 10.7837C7.2548 11.2897 6.8527 11.9915 6.71977 12.7652C6.58683 13.5389 6.7316 14.3347 7.12851 15.012C7.52542 15.6893 8.14892 16.2045 8.88889 16.4667C8.92612 15.3306 9.25157 14.2227 9.83466 13.247C10.4178 12.2713 11.2393 11.4598 12.2222 10.8889M8.98889 17.7778H2.22222V2.22222H14.6333L17.7778 5.36667V10.3889C18.6111 10.6778 19.3556 11.1111 20 11.7111V4.44444L15.5556 0H2.22222C1.63285 0 1.06762 0.234126 0.650874 0.650874C0.234126 1.06762 0 1.63285 0 2.22222V17.7778C0 18.3671 0.234126 18.9324 0.650874 19.3491C1.06762 19.7659 1.63285 20 2.22222 20H9.78889C9.4 19.3222 9.12222 18.5778 8.98889 17.7778M3.33333 7.77778H13.3333V3.33333H3.33333V7.77778ZM14.1667 20L11.1111 16.6667L12.4 15.3778L14.1667 17.1444L18.1556 13.1556L19.4444 14.7222L14.1667 20Z" fill="black"/>
</svg>
