<svg width="28" height="33" viewBox="0 0 28 33" fill="none" xmlns="http://www.w3.org/2000/svg">
<path d="M14.0055 20.0069H14.0818C15.718 20.0506 17.0269 21.3813 17.0269 23.0175C17.0269 24.4136 16.0779 25.5808 14.7908 25.9298V27.1515C14.7908 27.5878 14.4418 27.9368 14.0055 27.9368C13.5692 27.9368 13.2201 27.5878 13.2201 27.1515V25.9298C12.5792 25.7575 12.0129 25.3788 11.6087 24.8524C11.2046 24.326 10.985 23.6811 10.9841 23.0175C10.9841 22.5812 11.3331 22.2321 11.7694 22.2321C12.2057 22.2321 12.5548 22.5812 12.5548 23.0175C12.5548 23.8246 13.1983 24.4682 13.9946 24.4682C14.7908 24.4682 15.4453 23.8137 15.4453 23.0175C15.4453 22.2212 14.7908 21.5667 13.9946 21.5667H13.9182C13.1336 21.5455 12.3881 21.2191 11.8402 20.6569C11.2923 20.0948 10.9852 19.3412 10.9841 18.5562C10.9841 17.16 11.933 15.9929 13.2201 15.6439V14.4222C13.2201 13.9859 13.5692 13.6369 14.0055 13.6369C14.4418 13.6369 14.7908 13.9859 14.7908 14.4222V15.6439C16.0779 15.9929 17.0269 17.16 17.0269 18.5562C17.0269 18.9925 16.6779 19.3416 16.2416 19.3416C15.8053 19.3416 15.4562 18.9925 15.4562 18.5562C15.4562 17.76 14.8018 17.1055 14.0055 17.1055C13.2092 17.1055 12.5548 17.76 12.5548 18.5562C12.5548 19.3525 13.2092 20.0069 14.0055 20.0069V20.0069Z" fill="black"/>
<path d="M8.21565 4.46897L11.2545 8.02487L10.9262 8.39137C4.67175 9.7941 0 15.3799 0 22.0576C0 27.9281 4.76447 32.6926 10.635 32.6926H17.365C23.2355 32.6926 28 27.9292 28 22.0587C28.0109 15.3799 23.3391 9.7941 17.0847 8.39137C17.1101 8.16087 17.0684 7.92794 16.9647 7.72055L19.5498 4.7613L19.7167 4.50388C19.9116 4.07884 19.9614 3.60155 19.8586 3.14541C19.7557 2.68928 19.5059 2.27956 19.1475 1.97927C18.7891 1.67897 18.3419 1.50474 17.8748 1.48337C17.4077 1.46199 16.9465 1.59465 16.5622 1.86095L15.6427 0.770182C15.4364 0.539355 15.1838 0.354582 14.9014 0.227906C14.6189 0.101229 14.3129 0.0354907 14.0034 0.0349762C13.6938 0.0344616 13.3876 0.0991819 13.1048 0.224919C12.8219 0.350656 12.5687 0.534588 12.3617 0.764728L11.3985 1.84022C11.0152 1.56839 10.5529 1.43044 10.0833 1.44771C9.61366 1.46498 9.1628 1.63652 8.80045 1.93578C8.43811 2.23505 8.18446 2.64536 8.07875 3.10327C7.97304 3.56118 8.02116 4.04116 8.21565 4.46897V4.46897ZM12.3595 5.97968L10.5095 3.84178C10.9393 4.04887 11.4256 4.10768 11.8924 4.009C12.3591 3.91032 12.78 3.65972 13.0892 3.2964L13.9618 2.16418L14.9304 3.31167C15.2324 3.66287 15.6398 3.90709 16.0919 4.00792C16.544 4.10876 17.0166 4.06081 17.4392 3.87123L15.598 5.97968H12.3595V5.97968ZM2.18153 22.0576C2.18153 15.5261 7.47393 10.2337 14.0054 10.2337C20.537 10.2337 25.8294 15.5261 25.8184 22.0554V22.0576C25.8176 24.2993 24.9267 26.449 23.3415 28.0341C21.7564 29.6193 19.6067 30.5102 17.365 30.511H10.635C8.39325 30.5102 6.24359 29.6193 4.65845 28.0341C3.07331 26.449 2.1824 24.2993 2.18153 22.0576V22.0576Z" fill="black"/>
</svg>
