<svg width="30" height="30" viewBox="0 0 30 30" fill="none" xmlns="http://www.w3.org/2000/svg">
<path d="M15 0C6.71652 0 0 6.71652 0 15C0 23.2835 6.71652 30 15 30C23.2835 30 30 23.2835 30 15C30 6.71652 23.2835 0 15 0ZM15 27.4554C8.12277 27.4554 2.54464 21.8772 2.54464 15C2.54464 8.12277 8.12277 2.54464 15 2.54464C21.8772 2.54464 27.4554 8.12277 27.4554 15C27.4554 21.8772 21.8772 27.4554 15 27.4554Z" fill="#808080"/>
<path d="M13.3928 9.10714C13.3928 9.53338 13.5621 9.94217 13.8635 10.2436C14.1649 10.545 14.5737 10.7143 15 10.7143C15.4262 10.7143 15.835 10.545 16.1364 10.2436C16.4378 9.94217 16.6071 9.53338 16.6071 9.10714C16.6071 8.6809 16.4378 8.27212 16.1364 7.97072C15.835 7.66932 15.4262 7.5 15 7.5C14.5737 7.5 14.1649 7.66932 13.8635 7.97072C13.5621 8.27212 13.3928 8.6809 13.3928 9.10714V9.10714ZM15.8035 12.8571H14.1964C14.0491 12.8571 13.9285 12.9777 13.9285 13.125V22.2321C13.9285 22.3795 14.0491 22.5 14.1964 22.5H15.8035C15.9509 22.5 16.0714 22.3795 16.0714 22.2321V13.125C16.0714 12.9777 15.9509 12.8571 15.8035 12.8571Z" fill="#808080"/>
</svg>
