<svg width="30" height="30" viewBox="0 0 30 30" fill="none" xmlns="http://www.w3.org/2000/svg">
<path d="M15 6.42856C13.9404 6.42856 12.9047 6.74275 12.0237 7.3314C11.1427 7.92005 10.4561 8.75672 10.0506 9.73561C9.64514 10.7145 9.53905 11.7916 9.74576 12.8308C9.95247 13.87 10.4627 14.8246 11.2119 15.5738C11.9611 16.323 12.9157 16.8332 13.9548 17.0399C14.994 17.2466 16.0712 17.1405 17.0501 16.7351C18.0289 16.3296 18.8656 15.6429 19.4543 14.762C20.0429 13.881 20.3571 12.8452 20.3571 11.7857C20.3571 10.3649 19.7927 9.00229 18.788 7.99763C17.7834 6.99297 16.4208 6.42856 15 6.42856ZM15 15C14.3642 15 13.7428 14.8115 13.2142 14.4583C12.6856 14.1051 12.2736 13.6031 12.0304 13.0158C11.7871 12.4284 11.7234 11.7821 11.8474 11.1586C11.9715 10.5351 12.2776 9.96238 12.7271 9.51286C13.1766 9.06333 13.7494 8.7572 14.3729 8.63318C14.9964 8.50915 15.6427 8.57281 16.23 8.81609C16.8174 9.05937 17.3194 9.47135 17.6725 9.99994C18.0257 10.5285 18.2143 11.15 18.2143 11.7857C18.2134 12.6379 17.8745 13.455 17.2719 14.0576C16.6693 14.6602 15.8522 14.9991 15 15Z" fill="#808080"/>
<path d="M15 0C12.0333 0 9.13319 0.879735 6.66645 2.52796C4.19971 4.17618 2.27713 6.51886 1.14181 9.25975C0.00649925 12.0006 -0.290551 15.0166 0.288227 17.9263C0.867006 20.8361 2.29562 23.5088 4.3934 25.6066C6.49119 27.7044 9.16394 29.133 12.0736 29.7118C14.9834 30.2905 17.9994 29.9935 20.7403 28.8582C23.4811 27.7229 25.8238 25.8003 27.472 23.3335C29.1203 20.8668 30 17.9667 30 15C29.9955 11.0231 28.4137 7.21047 25.6016 4.39841C22.7895 1.58635 18.9769 0.0045372 15 0V0ZM8.57143 26.1182V24.6429C8.57228 23.7906 8.9112 22.9736 9.51382 22.3709C10.1164 21.7683 10.9335 21.4294 11.7857 21.4286H18.2143C19.0665 21.4294 19.8836 21.7683 20.4862 22.3709C21.0888 22.9736 21.4277 23.7906 21.4286 24.6429V26.1182C19.4777 27.2574 17.2591 27.8577 15 27.8577C12.7409 27.8577 10.5223 27.2574 8.57143 26.1182V26.1182ZM23.5629 24.5636C23.5415 23.1582 22.9689 21.8175 21.9685 20.8303C20.968 19.843 19.6198 19.2884 18.2143 19.2857H11.7857C10.3802 19.2884 9.03197 19.843 8.03153 20.8303C7.03108 21.8175 6.4585 23.1582 6.43715 24.5636C4.49418 22.8287 3.124 20.5445 2.50804 18.0136C1.89208 15.4826 2.0594 12.8243 2.98783 10.3906C3.91627 7.95683 5.56203 5.8625 7.70719 4.38489C9.85235 2.90728 12.3957 2.1161 15.0005 2.1161C17.6054 2.1161 20.1487 2.90728 22.2939 4.38489C24.4391 5.8625 26.0848 7.95683 27.0132 10.3906C27.9417 12.8243 28.109 15.4826 27.493 18.0136C26.8771 20.5445 25.5069 22.8287 23.5639 24.5636H23.5629Z" fill="#808080"/>
</svg>
