<svg width="30" height="30" viewBox="0 0 30 30" fill="none" xmlns="http://www.w3.org/2000/svg">
<path d="M28.9286 11.25H26.7643C26.7335 10.2624 26.5293 9.2927 26.1644 8.40086C25.7995 7.50901 25.2817 6.714 24.6429 6.065V1.25C24.6429 1.01786 24.5874 0.790307 24.4828 0.592837C24.3782 0.395367 24.2286 0.235783 24.0506 0.131966C23.8726 0.0281503 23.6734 -0.015796 23.4752 0.00505146C23.277 0.0258989 23.0878 0.110716 22.9286 0.25L18.9289 3.75H13.9286C8.025 3.75 3.78964 7.80125 3.27 13.75H3.21429C2.93013 13.75 2.6576 13.6183 2.45667 13.3839C2.25574 13.1495 2.14286 12.8315 2.14286 12.5V10H0V12.5C0.000850945 13.4943 0.339771 14.4475 0.942382 15.1506C1.54499 15.8536 2.36207 16.249 3.21429 16.25H3.28929C3.44467 17.8891 3.90127 19.4698 4.62793 20.8842C5.3546 22.2987 6.33423 23.5137 7.5 24.4462V28.75C7.5 29.0815 7.61288 29.3995 7.81381 29.6339C8.01475 29.8683 8.28727 30 8.57143 30H12.8571C13.1413 30 13.4138 29.8683 13.6148 29.6339C13.8157 29.3995 13.9286 29.0815 13.9286 28.75V26.25H17.1429V28.75C17.1429 29.0815 17.2557 29.3995 17.4567 29.6339C17.6576 29.8683 17.9301 30 18.2143 30H22.5C22.7842 30 23.0567 29.8683 23.2576 29.6339C23.4585 29.3995 23.5714 29.0815 23.5714 28.75V24.5462C24.3454 24.1182 25.0221 23.4836 25.5468 22.6938C26.0715 21.904 26.4295 20.9812 26.5918 20H28.9286C29.2127 20 29.4853 19.8683 29.6862 19.6339C29.8871 19.3995 30 19.0815 30 18.75V12.5C30 12.1685 29.8871 11.8505 29.6862 11.6161C29.4853 11.3817 29.2127 11.25 28.9286 11.25ZM27.8571 17.5H24.7757C24.4489 20.9413 23.8929 21.8563 21.4286 22.8938V27.5H19.2857V23.75H11.7857V27.5H9.64286V22.9725C8.35275 22.2564 7.26436 21.1261 6.50529 19.7141C5.74623 18.302 5.34794 16.6667 5.35714 15C5.35714 8.95625 9.66214 6.25 13.9286 6.25H19.6425L22.5 3.75V7.22C25.0907 9.545 24.5496 11.2025 24.6621 13.75H27.8571V17.5Z" fill="#808080"/>
</svg>
