<svg width="30" height="30" viewBox="0 0 30 30" fill="none" xmlns="http://www.w3.org/2000/svg">
<path d="M15.8887 16.5001L12.4379 19.935C12.2973 20.0745 12.1857 20.2404 12.1095 20.4232C12.0333 20.606 11.9941 20.802 11.9941 21C11.9941 21.1981 12.0333 21.3941 12.1095 21.5769C12.1857 21.7597 12.2973 21.9256 12.4379 22.065C12.5774 22.2056 12.7433 22.3172 12.9262 22.3934C13.109 22.4695 13.3051 22.5087 13.5032 22.5087C13.7012 22.5087 13.8973 22.4695 14.0802 22.3934C14.263 22.3172 14.4289 22.2056 14.5684 22.065L20.5698 16.0651C20.7064 15.9224 20.8135 15.7542 20.8849 15.5701C21.035 15.2049 21.035 14.7953 20.8849 14.4301C20.8135 14.246 20.7064 14.0777 20.5698 13.9351L14.5684 7.93511C14.4285 7.79525 14.2625 7.68431 14.0797 7.60862C13.8969 7.53293 13.701 7.49397 13.5032 7.49397C13.3053 7.49397 13.1094 7.53293 12.9267 7.60862C12.7439 7.68431 12.5778 7.79525 12.4379 7.93511C12.298 8.07497 12.1871 8.241 12.1114 8.42373C12.0356 8.60646 11.9967 8.80232 11.9967 9.0001C11.9967 9.19789 12.0356 9.39374 12.1114 9.57648C12.1871 9.75921 12.298 9.92524 12.4379 10.0651L15.8887 13.5001H1.50035C1.10243 13.5001 0.720813 13.6581 0.439443 13.9394C0.158072 14.2207 0 14.6023 0 15.0001C0 15.3979 0.158072 15.7794 0.439443 16.0607C0.720813 16.342 1.10243 16.5001 1.50035 16.5001H15.8887ZM15.0035 0.00014954C12.1995 -0.0123661 9.44808 0.760965 7.06136 2.23243C4.67463 3.70389 2.74813 5.81458 1.50035 8.32511C1.32129 8.68315 1.29183 9.09764 1.41844 9.4774C1.54506 9.85716 1.81738 10.1711 2.17551 10.3501C2.53364 10.5291 2.94823 10.5586 3.32808 10.432C3.70793 10.3054 4.02192 10.0331 4.20099 9.6751C5.14949 7.76009 6.5923 6.13305 8.38029 4.96211C10.1683 3.79116 12.2366 3.11881 14.3715 3.01452C16.5064 2.91023 18.6304 3.3778 20.5241 4.36889C22.4178 5.35999 24.0123 6.83866 25.1431 8.6521C26.2738 10.4655 26.8996 12.548 26.9559 14.6842C27.0122 16.8203 26.4969 18.9328 25.4632 20.8033C24.4296 22.6737 22.9151 24.2343 21.0763 25.3237C19.2374 26.4131 17.141 26.9918 15.0035 27C12.7663 27.0097 10.5717 26.3886 8.67157 25.2079C6.77143 24.0272 5.24276 22.3349 4.261 20.325C4.08194 19.967 3.76794 19.6947 3.38809 19.5682C3.00824 19.4416 2.59365 19.471 2.23552 19.6501C1.8774 19.8291 1.60507 20.143 1.47846 20.5227C1.35184 20.9025 1.3813 21.317 1.56037 21.675C2.74989 24.0683 4.55735 26.1004 6.7958 27.5611C9.03425 29.0218 11.6224 29.8581 14.2925 29.9835C16.9627 30.1089 19.6178 29.5188 21.9834 28.2743C24.3489 27.0298 26.3389 25.176 27.7476 22.9048C29.1563 20.6335 29.9324 18.0273 29.9958 15.3556C30.0591 12.6839 29.4074 10.0438 28.108 7.70836C26.8085 5.37293 24.9086 3.42698 22.6047 2.0718C20.3008 0.716613 17.6766 0.00140421 15.0035 0.00014954V0.00014954Z" fill="#808080"/>
</svg>
