<svg width="124" height="51" viewBox="0 0 124 51" fill="none" xmlns="http://www.w3.org/2000/svg">
<path d="M40.788 27.5533C41.0827 27.5533 41.3093 27.6893 41.468 27.9613C41.6493 28.2333 41.74 28.6073 41.74 29.0833C41.74 29.9899 41.5247 30.6926 41.094 31.1913C40.1193 32.3926 39.0653 33.3786 37.932 34.1493C36.8213 34.9199 35.552 35.3053 34.124 35.3053C32.9227 35.3053 31.948 34.8746 31.2 34.0133C29.908 34.8519 28.5593 35.2826 27.154 35.3053C26.8593 39.6799 26.1907 43.3293 25.148 46.2533C24.1053 49.1999 22.5753 50.6733 20.558 50.6733C19.334 50.6733 18.4273 50.2313 17.838 49.3473C17.2487 48.4633 16.954 47.2393 16.954 45.6753C16.954 43.4539 17.464 40.8586 18.484 37.8893C19.504 34.9426 21.0793 31.6899 23.21 28.1313C23.21 24.8219 23.1873 22.5213 23.142 21.2293C23.1193 20.5719 23.38 20.0506 23.924 19.6653C24.468 19.2799 25.148 19.0873 25.964 19.0873C26.44 19.0873 26.78 19.1893 26.984 19.3933C27.2107 19.5746 27.3353 19.9486 27.358 20.5153C27.358 21.0819 27.3693 21.5013 27.392 21.7733C28.1173 20.8666 28.8313 20.2206 29.534 19.8353C30.2367 19.4273 30.9847 19.2233 31.778 19.2233C33.0473 19.2233 34.0787 19.7333 34.872 20.7533C35.688 21.7733 36.096 23.1106 36.096 24.7653C36.096 25.9666 35.9033 27.1339 35.518 28.2673C35.1327 29.4006 34.6 30.4319 33.92 31.3613C34.396 31.4973 34.7927 31.5653 35.11 31.5653C35.858 31.5653 36.572 31.2933 37.252 30.7493C37.932 30.2053 38.8047 29.2986 39.87 28.0293C40.142 27.7119 40.448 27.5533 40.788 27.5533ZM27.324 32.0413C28.14 31.8599 28.888 31.4179 29.568 30.7153C30.2707 29.9899 30.826 29.1059 31.234 28.0633C31.642 26.9979 31.846 25.8873 31.846 24.7313C31.846 24.0513 31.71 23.5413 31.438 23.2013C31.166 22.8386 30.8033 22.6573 30.35 22.6573C29.534 22.6573 28.548 23.5186 27.392 25.2413C27.3693 26.2386 27.358 27.7006 27.358 29.6273C27.358 30.6699 27.3467 31.4746 27.324 32.0413ZM20.83 47.3413C21.442 47.3413 21.952 46.0039 22.36 43.3293C22.768 40.6773 23.0287 37.3679 23.142 33.4013C22.1673 35.6679 21.3967 37.8326 20.83 39.8953C20.2633 41.9579 19.98 43.6919 19.98 45.0973C19.98 45.8226 20.0707 46.3779 20.252 46.7633C20.4107 47.1486 20.6033 47.3413 20.83 47.3413ZM56.5451 27.5533C56.8398 27.5533 57.0665 27.6893 57.2251 27.9613C57.4065 28.2333 57.4971 28.6073 57.4971 29.0833C57.4971 29.9899 57.2818 30.6926 56.8511 31.1913C56.0125 32.2113 54.8225 33.1519 53.2811 34.0133C51.7625 34.8746 50.1305 35.3053 48.3851 35.3053C46.0051 35.3053 44.1578 34.6593 42.8431 33.3673C41.5285 32.0753 40.8711 30.3073 40.8711 28.0633C40.8711 26.4993 41.1998 25.0486 41.8571 23.7113C42.5145 22.3513 43.4211 21.2746 44.5771 20.4813C45.7558 19.6879 47.0818 19.2913 48.5551 19.2913C49.8698 19.2913 50.9238 19.6879 51.7171 20.4813C52.5105 21.2519 52.9071 22.3059 52.9071 23.6433C52.9071 25.2073 52.3405 26.5559 51.2071 27.6893C50.0965 28.7999 48.2038 29.6839 45.5291 30.3413C46.0958 31.3839 47.1725 31.9053 48.7591 31.9053C49.7791 31.9053 50.9351 31.5539 52.2271 30.8513C53.5418 30.1259 54.6751 29.1853 55.6271 28.0293C55.8991 27.7119 56.2051 27.5533 56.5451 27.5533ZM47.9771 22.6233C47.1385 22.6233 46.4245 23.1106 45.8351 24.0853C45.2685 25.0599 44.9851 26.2386 44.9851 27.6213V27.6893C46.3225 27.3719 47.3765 26.8959 48.1471 26.2613C48.9178 25.6266 49.3031 24.8899 49.3031 24.0513C49.3031 23.6206 49.1785 23.2806 48.9291 23.0313C48.7025 22.7593 48.3851 22.6233 47.9771 22.6233ZM59.5228 35.3053C58.6615 35.3053 58.0495 34.8519 57.6868 33.9453C57.3468 33.0386 57.1768 31.5879 57.1768 29.5933C57.1768 26.6466 57.5961 23.8473 58.4348 21.1953C58.6388 20.5379 58.9675 20.0619 59.4208 19.7673C59.8968 19.4499 60.5541 19.2913 61.3928 19.2913C61.8461 19.2913 62.1635 19.3479 62.3448 19.4613C62.5261 19.5746 62.6168 19.7899 62.6168 20.1073C62.6168 20.4699 62.4468 21.2859 62.1068 22.5553C61.8801 23.4619 61.6988 24.2553 61.5628 24.9353C61.4268 25.6153 61.3135 26.4539 61.2228 27.4513C61.9708 25.5019 62.8095 23.9153 63.7388 22.6913C64.6681 21.4673 65.5748 20.5946 66.4588 20.0733C67.3655 19.5519 68.1928 19.2913 68.9408 19.2913C70.4141 19.2913 71.1508 20.0279 71.1508 21.5013C71.1508 22.3853 70.9015 23.9833 70.4028 26.2953C69.9721 28.2673 69.7568 29.5706 69.7568 30.2053C69.7568 31.1119 70.0855 31.5653 70.7428 31.5653C71.1961 31.5653 71.7288 31.2933 72.3408 30.7493C72.9755 30.1826 73.8141 29.2759 74.8568 28.0293C75.1288 27.7119 75.4348 27.5533 75.7748 27.5533C76.0695 27.5533 76.2961 27.6893 76.4548 27.9613C76.6361 28.2333 76.7268 28.6073 76.7268 29.0833C76.7268 29.9899 76.5115 30.6926 76.0808 31.1913C75.1061 32.3926 74.0521 33.3786 72.9188 34.1493C71.8081 34.9199 70.5388 35.3053 69.1108 35.3053C67.9548 35.3053 67.0821 34.9766 66.4928 34.3193C65.9035 33.6393 65.6088 32.6646 65.6088 31.3953C65.6088 30.7606 65.7675 29.6273 66.0848 27.9953C66.3795 26.5673 66.5268 25.5813 66.5268 25.0373C66.5268 24.6746 66.4021 24.4933 66.1528 24.4933C65.8581 24.4933 65.4388 24.8786 64.8948 25.6493C64.3735 26.3973 63.8295 27.3946 63.2628 28.6413C62.7188 29.8879 62.2768 31.2026 61.9368 32.5853C61.6875 33.6506 61.3928 34.3759 61.0528 34.7613C60.7355 35.1239 60.2255 35.3053 59.5228 35.3053ZM95.668 27.5533C95.9627 27.5533 96.1893 27.6893 96.348 27.9613C96.5293 28.2333 96.62 28.6073 96.62 29.0833C96.62 29.9899 96.4047 30.6926 95.974 31.1913C95.0447 32.3246 94.0247 33.2993 92.914 34.1153C91.8033 34.9086 90.704 35.3053 89.616 35.3053C87.8933 35.3053 86.5787 34.2966 85.672 32.2793C84.72 33.4806 83.8813 34.2853 83.156 34.6933C82.4533 35.1013 81.626 35.3053 80.674 35.3053C79.2913 35.3053 78.1467 34.7953 77.24 33.7753C76.356 32.7326 75.914 31.3839 75.914 29.7293C75.914 27.9159 76.2993 26.2386 77.07 24.6973C77.8407 23.1333 78.8947 21.8639 80.232 20.8893C81.592 19.8919 83.1107 19.3026 84.788 19.1213C85.2187 14.7239 86.0347 10.9726 87.236 7.86725C88.46 4.73925 90.058 3.17525 92.03 3.17525C93.0047 3.17525 93.8093 3.61725 94.444 4.50125C95.1013 5.38525 95.43 6.72259 95.43 8.51325C95.43 11.0519 94.8067 14.0213 93.56 17.4213C92.3133 20.8213 90.6473 24.3119 88.562 27.8933C88.6527 29.2079 88.8453 30.1486 89.14 30.7153C89.4573 31.2819 89.854 31.5653 90.33 31.5653C90.942 31.5653 91.5653 31.2933 92.2 30.7493C92.8347 30.2053 93.6847 29.2986 94.75 28.0293C95.022 27.7119 95.328 27.5533 95.668 27.5533ZM91.656 6.50725C91.2253 6.50725 90.7947 7.27792 90.364 8.81925C89.9333 10.3379 89.5593 12.3326 89.242 14.8033C88.9473 17.2739 88.732 19.8579 88.596 22.5553C91.1347 17.0246 92.404 12.5819 92.404 9.22725C92.404 8.36592 92.3247 7.69725 92.166 7.22125C92.03 6.74525 91.86 6.50725 91.656 6.50725ZM81.864 31.8713C82.2947 31.8713 82.7253 31.7013 83.156 31.3613C83.5867 30.9986 84.1307 30.3413 84.788 29.3893C84.5613 28.1653 84.448 26.7939 84.448 25.2753C84.448 24.7313 84.4707 23.8473 84.516 22.6233C83.2693 23.0086 82.2267 23.8473 81.388 25.1393C80.572 26.4086 80.164 27.8253 80.164 29.3893C80.164 31.0439 80.7307 31.8713 81.864 31.8713ZM109.12 27.5533C109.415 27.5533 109.641 27.6893 109.8 27.9613C109.981 28.2333 110.072 28.6073 110.072 29.0833C110.072 29.9899 109.857 30.6926 109.426 31.1913C108.451 32.3926 107.386 33.3786 106.23 34.1493C105.097 34.9199 103.805 35.3053 102.354 35.3053C100.359 35.3053 98.8747 34.3986 97.9 32.5853C96.948 30.7719 96.472 28.4259 96.472 25.5473C96.472 22.7819 96.8234 19.6313 97.526 16.0953C98.2514 12.5593 99.3054 9.52192 100.688 6.98325C102.093 4.44459 103.759 3.17525 105.686 3.17525C106.774 3.17525 107.624 3.68525 108.236 4.70525C108.871 5.70259 109.188 7.14192 109.188 9.02325C109.188 11.7206 108.44 14.8486 106.944 18.4073C105.448 21.9659 103.419 25.4906 100.858 28.9813C101.017 29.9106 101.277 30.5793 101.64 30.9873C102.003 31.3726 102.479 31.5653 103.068 31.5653C103.997 31.5653 104.813 31.3046 105.516 30.7833C106.219 30.2393 107.114 29.3213 108.202 28.0293C108.474 27.7119 108.78 27.5533 109.12 27.5533ZM104.938 6.54125C104.417 6.54125 103.827 7.48192 103.17 9.36325C102.513 11.2446 101.935 13.5793 101.436 16.3673C100.937 19.1553 100.665 21.8299 100.62 24.3913C102.229 21.7393 103.51 19.0873 104.462 16.4353C105.414 13.7606 105.89 11.3239 105.89 9.12525C105.89 7.40259 105.573 6.54125 104.938 6.54125ZM121.604 19.2913C122.125 19.2913 122.488 19.3593 122.692 19.4953C122.896 19.6313 122.998 19.8579 122.998 20.1753C122.998 20.7193 122.703 22.6573 122.114 25.9893C121.593 29.1853 121.287 31.0779 121.196 31.6673C120.357 37.4926 119.201 42.1053 117.728 45.5053C116.255 48.9053 114.294 50.6053 111.846 50.6053C110.69 50.6053 109.749 50.2426 109.024 49.5173C108.299 48.8146 107.936 47.8853 107.936 46.7293C107.936 45.6639 108.174 44.5759 108.65 43.4653C109.149 42.3546 110.055 41.0739 111.37 39.6233C112.707 38.1953 114.589 36.5519 117.014 34.6933L117.116 33.9113C117.275 33.0726 117.456 31.8713 117.66 30.3073C117.207 31.9393 116.572 33.1859 115.756 34.0473C114.94 34.8859 114.079 35.3053 113.172 35.3053C112.152 35.3053 111.313 34.8406 110.656 33.9113C110.021 32.9593 109.704 31.7806 109.704 30.3753C109.704 28.6753 109.817 27.1226 110.044 25.7173C110.271 24.2893 110.645 22.7819 111.166 21.1953C111.393 20.5153 111.71 20.0279 112.118 19.7333C112.526 19.4386 113.172 19.2913 114.056 19.2913C114.555 19.2913 114.895 19.3706 115.076 19.5293C115.28 19.6879 115.382 19.9259 115.382 20.2433C115.382 20.4246 115.257 21.0366 115.008 22.0793C114.781 22.9179 114.6 23.6773 114.464 24.3573C114.283 25.2866 114.124 26.1819 113.988 27.0433C113.852 27.8819 113.784 28.5733 113.784 29.1173C113.784 29.9786 114.022 30.4093 114.498 30.4093C114.838 30.4093 115.257 30.0693 115.756 29.3893C116.277 28.7093 116.821 27.6779 117.388 26.2953C117.977 24.9126 118.544 23.2126 119.088 21.1953C119.269 20.5153 119.541 20.0279 119.904 19.7333C120.289 19.4386 120.856 19.2913 121.604 19.2913ZM112.22 47.3073C112.787 47.3073 113.421 46.6499 114.124 45.3353C114.827 44.0206 115.529 41.8333 116.232 38.7733C114.487 40.2466 113.217 41.5839 112.424 42.7853C111.653 44.0093 111.268 45.0746 111.268 45.9813C111.268 46.3666 111.336 46.6839 111.472 46.9333C111.631 47.1826 111.88 47.3073 112.22 47.3073Z" fill="#E7FEF3"/>
<path d="M11.118 35.4071C8.10333 35.4071 5.68933 34.8405 3.876 33.7071C2.06267 32.5511 1.156 30.7945 1.156 28.4371C1.156 27.1905 1.37133 26.2385 1.802 25.5811C2.23267 24.9238 2.86733 24.5951 3.706 24.5951C4.318 24.5951 4.81667 24.7538 5.202 25.0711C5.58733 25.3885 5.78 25.7965 5.78 26.2951C5.78 26.7485 5.746 27.1451 5.678 27.4851C5.678 27.5758 5.65533 27.7345 5.61 27.9611C5.58733 28.1878 5.576 28.4258 5.576 28.6751C5.576 29.6951 6.086 30.4545 7.106 30.9531C8.14867 31.4518 9.59933 31.7011 11.458 31.7011C13.3847 31.7011 14.892 31.3611 15.98 30.6811C17.068 29.9785 17.612 29.0038 17.612 27.7571C17.612 26.9865 17.3627 26.3291 16.864 25.7851C16.3653 25.2185 15.742 24.7538 14.994 24.3911C14.246 24.0058 13.192 23.5411 11.832 22.9971C10.0867 22.3171 8.65867 21.6711 7.548 21.0591C6.46 20.4471 5.51933 19.6198 4.726 18.5771C3.95533 17.5118 3.57 16.1971 3.57 14.6331C3.57 13.0011 4.00067 11.5505 4.862 10.2811C5.746 9.0118 7.004 8.0258 8.636 7.32313C10.2907 6.62046 12.2287 6.26913 14.45 6.26913C16.1047 6.26913 17.6233 6.51846 19.006 7.01713C20.3887 7.49313 21.488 8.2298 22.304 9.22713C23.1427 10.2245 23.562 11.4485 23.562 12.8991C23.562 14.3271 23.3467 15.4038 22.916 16.1291C22.4853 16.8545 21.8507 17.2171 21.012 17.2171C20.4227 17.2171 19.924 17.0358 19.516 16.6731C19.1307 16.3105 18.938 15.8798 18.938 15.3811C18.938 14.9505 18.972 14.5538 19.04 14.1911C19.108 13.5111 19.142 13.0805 19.142 12.8991C19.142 11.9471 18.6773 11.2218 17.748 10.7231C16.8187 10.2245 15.6627 9.97513 14.28 9.97513C12.3307 9.97513 10.8347 10.3378 9.792 11.0631C8.772 11.7658 8.262 12.7631 8.262 14.0551C8.262 14.9165 8.52267 15.6531 9.044 16.2651C9.588 16.8771 10.2567 17.3871 11.05 17.7951C11.8433 18.2031 12.954 18.6905 14.382 19.2571C16.1047 19.9598 17.4873 20.5945 18.53 21.1611C19.5727 21.7278 20.4567 22.4985 21.182 23.4731C21.93 24.4478 22.304 25.6491 22.304 27.0771C22.304 29.7518 21.284 31.8145 19.244 33.2651C17.2267 34.6931 14.518 35.4071 11.118 35.4071Z" fill="#E7FEF3"/>
<line x1="15.806" y1="7.24152" x2="16.7381" y2="2.32918" stroke="#E7FEF3" stroke-width="3" stroke-linecap="round"/>
<line x1="8.80595" y1="40.2415" x2="9.73813" y2="35.3292" stroke="#E7FEF3" stroke-width="3" stroke-linecap="round"/>
</svg>
